<?xml version="1.0" encoding="UTF-8" standalone="no"?>
<!-- Created with Inkscape (http://www.inkscape.org/) -->

<svg
   xmlns:dc="http://purl.org/dc/elements/1.1/"
   xmlns:cc="http://creativecommons.org/ns#"
   xmlns:rdf="http://www.w3.org/1999/02/22-rdf-syntax-ns#"
   xmlns:svg="http://www.w3.org/2000/svg"
   xmlns="http://www.w3.org/2000/svg"
   xmlns:sodipodi="http://sodipodi.sourceforge.net/DTD/sodipodi-0.dtd"
   xmlns:inkscape="http://www.inkscape.org/namespaces/inkscape"
   width="80.350433mm"
   height="91.915558mm"
   viewBox="0 0 284.70626 325.68505"
   id="svg4369"
   version="1.1"
   inkscape:version="0.91 r13725"
   sodipodi:docname="logo.svg">
  <defs
     id="defs4371" />
  <sodipodi:namedview
     id="base"
     pagecolor="#ffffff"
     bordercolor="#666666"
     borderopacity="1.0"
     inkscape:pageopacity="0.0"
     inkscape:pageshadow="2"
     inkscape:zoom="0.7"
     inkscape:cx="229.31602"
     inkscape:cy="-34.774364"
     inkscape:document-units="px"
     inkscape:current-layer="layer1"
     showgrid="false"
     fit-margin-top="0"
     fit-margin-left="0"
     fit-margin-right="0"
     fit-margin-bottom="0"
     inkscape:window-width="1278"
     inkscape:window-height="1003"
     inkscape:window-x="0"
     inkscape:window-y="19"
     inkscape:window-maximized="1" />
  <metadata
     id="metadata4374">
    <rdf:RDF>
      <cc:Work
         rdf:about="">
        <dc:format>image/svg+xml</dc:format>
        <dc:type
           rdf:resource="http://purl.org/dc/dcmitype/StillImage" />
        <dc:title></dc:title>
      </cc:Work>
    </rdf:RDF>
  </metadata>
  <g
     inkscape:label="Layer 1"
     inkscape:groupmode="layer"
     id="layer1"
     transform="translate(0.92455331,0.48031723)">
    <path
       inkscape:connector-curvature="0"
       id="path4195"
       style="fill:#302f2f;fill-opacity:1;fill-rule:nonzero;stroke:none"
       d="M 278.82795,77.314683 146.3817,0.84718277 c -3.065,-1.77 -6.84125,-1.77 -9.9075,0 L 4.0291967,77.314683 c -3.06500001,1.77 -4.95375001,5.04 -4.95375001,8.58 l 0,152.935117 c 0,3.53863 1.88875,6.80963 4.95375001,8.57963 L 136.4742,323.87718 c 3.06625,1.77006 6.8425,1.77006 9.9075,0 l 132.44625,-76.46775 c 3.065,-1.77 4.95375,-5.041 4.95375,-8.57963 l 0,-152.935117 c 0,-3.54 -1.88875,-6.81 -4.95375,-8.58" />
    <path
       inkscape:connector-curvature="0"
       id="path4197"
       style="fill:#ffffff;fill-opacity:1;fill-rule:nonzero;stroke:none"
       d="m 211.56045,124.80843 -52.37125,0 0,144.20112 -35.17125,0 0,-144.20112 -52.626254,0 0,-30.437497 140.168754,0 0,30.437497" />
    <path
       inkscape:connector-curvature="0"
       id="path4199"
       style="fill:#ffffff;fill-opacity:1;fill-rule:nonzero;stroke:none"
       d="m 80.527946,86.830933 -3.49,0 0,-13.5525 -4.46875,0 0,-2.905 12.42875,0 0,2.905 -4.47,0 0,13.5525" />
    <path
       inkscape:connector-curvature="0"
       id="path4201"
       style="fill:#ffffff;fill-opacity:1;fill-rule:nonzero;stroke:none"
       d="m 95.579196,79.987183 c -1.1025,-3.55 -1.72375,-5.5575 -1.86375,-6.0225 -0.13875,-0.465 -0.2375,-0.8325 -0.2975,-1.1025 -0.2475,0.96 -0.9575,3.33625 -2.1275,7.125 l 4.28875,0 z m 2.02625,6.84375 -1.1925,-3.9175 -6,0 -1.19375,3.9175 -3.76,0 5.80875,-16.525 4.26625,0 5.830004,16.525 -3.758754,0" />
    <path
       inkscape:connector-curvature="0"
       id="path4203"
       style="fill:#ffffff;fill-opacity:1;fill-rule:nonzero;stroke:none"
       d="m 106.9267,77.679683 1.125,0 c 1.10375,0 1.9175,-0.18375 2.4425,-0.5525 0.525,-0.36625 0.7875,-0.945 0.7875,-1.7325 0,-0.78125 -0.2675,-1.33625 -0.805,-1.66625 -0.535,-0.33 -1.36625,-0.495 -2.4925,-0.495 l -1.0575,0 0,4.44625 z m 0,2.83625 0,6.315 -3.49,0 0,-16.4575 4.795,0 c 2.23625,0 3.89125,0.4075 4.96375,1.22125 1.07375,0.815 1.61,2.05125 1.61,3.71 0,0.9675 -0.26625,1.82875 -0.79875,2.58375 -0.53375,0.75375 -1.2875,1.345 -2.2625,1.7725 2.47625,3.69875 4.09,6.08875 4.84,7.17 l -3.87125,0 -3.93,-6.315 -1.85625,0" />
    <path
       inkscape:connector-curvature="0"
       id="path4205"
       style="fill:#ffffff;fill-opacity:1;fill-rule:nonzero;stroke:none"
       d="m 126.7042,79.987183 c -1.10375,-3.55 -1.725,-5.5575 -1.8625,-6.0225 -0.14,-0.465 -0.23875,-0.8325 -0.3,-1.1025 -0.24625,0.96 -0.955,3.33625 -2.12625,7.125 l 4.28875,0 z m 2.02625,6.84375 -1.19375,-3.9175 -6,0 -1.1925,3.9175 -3.76,0 5.80875,-16.525 4.26625,0 5.83125,16.525 -3.76,0" />
    <path
       inkscape:connector-curvature="0"
       id="path4207"
       style="fill:#ffffff;fill-opacity:1;fill-rule:nonzero;stroke:none"
       d="m 149.16045,86.830933 -4.43375,0 -7.16,-12.44875 -0.10125,0 c 0.1425,2.19875 0.21375,3.76625 0.21375,4.705 l 0,7.74375 -3.1175,0 0,-16.4575 4.40125,0 7.1475,12.32625 0.0788,0 c -0.1125,-2.13875 -0.16875,-3.65 -0.16875,-4.53625 l 0,-7.79 3.14,0 0,16.4575" />
    <path
       inkscape:connector-curvature="0"
       id="path4209"
       style="fill:#ffffff;fill-opacity:1;fill-rule:nonzero;stroke:none"
       d="m 158.5592,86.830933 -1.9125,0 0,-14.7575 -5.2125,0 0,-1.7 12.3375,0 0,1.7 -5.2125,0 0,14.7575" />
    <path
       inkscape:connector-curvature="0"
       id="path4211"
       style="fill:#ffffff;fill-opacity:1;fill-rule:nonzero;stroke:none"
       d="m 167.4192,78.579683 c 0,2.22875 0.47375,3.92 1.42375,5.0725 0.95,1.15125 2.3275,1.7275 4.13625,1.7275 1.82375,0 3.20125,-0.575 4.13125,-1.7225 0.93125,-1.14875 1.39625,-2.84125 1.39625,-5.0775 0,-2.21375 -0.46375,-3.8925 -1.39,-5.0375 -0.92625,-1.14375 -2.29875,-1.71625 -4.115,-1.71625 -1.8225,0 -3.20875,0.57625 -4.15875,1.7275 -0.95,1.1525 -1.42375,2.82875 -1.42375,5.02625 z m 13.11375,0 c 0,2.635 -0.66625,4.705 -1.9975,6.215 -1.3325,1.5075 -3.18375,2.26125 -5.55625,2.26125 -2.42375,0 -4.29375,-0.74 -5.61125,-2.2225 -1.3175,-1.4825 -1.975,-3.57375 -1.975,-6.27625 0,-2.67875 0.66,-4.75625 1.98125,-6.23 1.32125,-1.475 3.1975,-2.2125 5.6275,-2.2125 2.365,0 4.21,0.75125 5.53875,2.25125 1.32875,1.50125 1.9925,3.5725 1.9925,6.21375" />
    <path
       inkscape:connector-curvature="0"
       id="path4213"
       style="fill:#ffffff;fill-opacity:1;fill-rule:nonzero;stroke:none"
       d="m 185.3742,78.579683 c 0,2.22875 0.47375,3.92 1.42375,5.0725 0.95,1.15125 2.3275,1.7275 4.1375,1.7275 1.82375,0 3.2,-0.575 4.13,-1.7225 0.93125,-1.14875 1.3975,-2.84125 1.3975,-5.0775 0,-2.21375 -0.465,-3.8925 -1.39125,-5.0375 -0.92625,-1.14375 -2.29875,-1.71625 -4.115,-1.71625 -1.8225,0 -3.20875,0.57625 -4.15875,1.7275 -0.95,1.1525 -1.42375,2.82875 -1.42375,5.02625 z m 13.115,0 c 0,2.635 -0.6675,4.705 -1.99875,6.215 -1.33125,1.5075 -3.18375,2.26125 -5.555,2.26125 -2.425,0 -4.295,-0.74 -5.6125,-2.2225 -1.31625,-1.4825 -1.975,-3.57375 -1.975,-6.27625 0,-2.67875 0.66125,-4.75625 1.98125,-6.23 1.32125,-1.475 3.1975,-2.2125 5.6275,-2.2125 2.365,0 4.21,0.75125 5.53875,2.25125 1.32875,1.50125 1.99375,3.5725 1.99375,6.21375" />
    <path
       inkscape:connector-curvature="0"
       id="path4215"
       style="fill:#ffffff;fill-opacity:1;fill-rule:nonzero;stroke:none"
       d="m 202.15795,86.830933 0,-16.4575 1.9125,0 0,14.725 7.26125,0 0,1.7325 -9.17375,0" />
  </g>
</svg>
