<?xml version="1.0" encoding="UTF-8" ?>
<svg xmlns="http://www.w3.org/2000/svg" width="100" height="100">
    <rect x="10" y="10" width="80" height="80" stroke="black" stroke-width="4" fill="white" />
    <line x1="10" y1="20" x2="15" y2="20" stroke="black" stroke-width="4" fill="white" />
    <line x1="10" y1="30" x2="15" y2="30" stroke="black" stroke-width="4" fill="white" />
    <line x1="10" y1="40" x2="15" y2="40" stroke="black" stroke-width="4" fill="white" />
    <line x1="10" y1="50" x2="15" y2="50" stroke="black" stroke-width="4" fill="white" />
    <line x1="10" y1="60" x2="15" y2="60" stroke="black" stroke-width="4" fill="white" />
    <line x1="10" y1="70" x2="15" y2="70" stroke="black" stroke-width="4" fill="white" />
    <line x1="10" y1="80" x2="15" y2="80" stroke="black" stroke-width="4" fill="white" />
    <line x1="20" y1="90" x2="20" y2="85" stroke="black" stroke-width="4" fill="white" />
    <line x1="30" y1="90" x2="30" y2="85" stroke="black" stroke-width="4" fill="white" />
    <line x1="40" y1="90" x2="40" y2="85" stroke="black" stroke-width="4" fill="white" />
    <line x1="50" y1="90" x2="50" y2="85" stroke="black" stroke-width="4" fill="white" />
    <line x1="60" y1="90" x2="60" y2="85" stroke="black" stroke-width="4" fill="white" />
    <line x1="70" y1="90" x2="70" y2="85" stroke="black" stroke-width="4" fill="white" />
    <line x1="80" y1="90" x2="80" y2="85" stroke="black" stroke-width="4" fill="white" />
    <circle cx="20" cy="75" r="2" stroke="red" stroke-width="4" fill="white" />
    <circle cx="30" cy="70" r="2" stroke="red" stroke-width="4" fill="white" />
    <circle cx="40" cy="55" r="2" stroke="red" stroke-width="4" fill="white" />
    <circle cx="45" cy="65" r="2" stroke="red" stroke-width="4" fill="white" />
    <circle cx="50" cy="50" r="2" stroke="red" stroke-width="4" fill="white" />
    <circle cx="60" cy="45" r="2" stroke="red" stroke-width="4" fill="white" />
    <circle cx="70" cy="35" r="2" stroke="red" stroke-width="4" fill="white" />
    <circle cx="80" cy="20" r="2" stroke="red" stroke-width="4" fill="white" />
</svg>