<?xml version="1.0" encoding="UTF-8" ?>
<svg xmlns="http://www.w3.org/2000/svg" width="100" height="100">
    <path d="M 10 20 A 40 10 0 0 0 90 20 A 40 10 0 0 0 10 20 L 10 40 A 40 10 0 0 0 90 40 L 90 20" stroke="black" stroke-width="4" fill="white" />
    <path d="M 20 80 L 60 80 A 5 5 0 0 1 60 90 L 20 90 A 5 5 0 0 1 20 80" stroke="black" stroke-width="4" fill="white" />
    <path d="M 70 70 L 80 70 A 5 5 0 0 1 80 80 L 70 80 A 5 5 0 0 1 70 70" stroke="black" stroke-width="4" fill="white" />
    <polyline points="20,40 40,40 40,60 50,60, 30,80 10,60 20,60 20,40 40,40" stroke="red" stroke-width="4" fill="white" />
    <polyline points="50,20 80,20 80,50 50,50 50,20 80,20" stroke="red" stroke-width="4" fill="white" />
    <circle cx="57.5" cy="27.5" r="2"  stroke="red" stroke-width="4" fill="white" />
    <circle cx="57.5" cy="42.5" r="2"  stroke="red" stroke-width="4" fill="white" />
    <circle cx="72.5" cy="27.5" r="2"  stroke="red" stroke-width="4" fill="white" />
    <circle cx="72.5" cy="42.5" r="2"  stroke="red" stroke-width="4" fill="white" />
    <circle cx="65.0" cy="35.0" r="2"  stroke="red" stroke-width="4" fill="white" />
</svg>
