<?xml version="1.0" encoding="UTF-8" ?>
<svg xmlns="http://www.w3.org/2000/svg" width="100" height="100">
    <path d="M 10 20 A 40 10 0 0 0 90 20 A 40 10 0 0 0 10 20 L 10 40 A 40 10 0 0 0 90 40 L 90 20" stroke="black" stroke-width="4" fill="white" />
    <path d="M 20 80 L 60 80 A 5 5 0 0 1 60 90 L 20 90 A 5 5 0 0 1 20 80" stroke="black" stroke-width="4" fill="white" />
    <path d="M 70 70 L 80 70 A 5 5 0 0 1 80 80 L 70 80 A 5 5 0 0 1 70 70" stroke="black" stroke-width="4" fill="white" />
    <polyline points="40,40 60,40 60,60 70,60, 50,80 30,60 40,60 40,40 60,40" stroke="red" stroke-width="4" fill="white" />
</svg>